{
	"asset":{
		"copyright":"Monstrous Software",
		"generator":"Khronos glTF Blender I/O v3.5.30",
		"version":"2.0"
	},
	"extensionsUsed":[
		"KHR_materials_specular",
		"KHR_materials_ior"
	],
	"scene":0,
	"scenes":[
		{
			"name":"Scene",
			"nodes":[
				0,
				1
			]
		}
	],
	"nodes":[
		{
			"mesh":0,
			"name":"groundplane",
			"scale":[
				20,
				1,
				20
			],
			"translation":[
				0,
				-1,
				0
			]
		},
		{
			"mesh":1,
			"name":"cornstalk"
		}
	],
	"animations":[
		{
			"channels":[
				{
					"sampler":0,
					"target":{
						"node":0,
						"path":"translation"
					}
				},
				{
					"sampler":1,
					"target":{
						"node":0,
						"path":"rotation"
					}
				},
				{
					"sampler":2,
					"target":{
						"node":0,
						"path":"scale"
					}
				}
			],
			"name":"groundplane",
			"samplers":[
				{
					"input":12,
					"interpolation":"LINEAR",
					"output":13
				},
				{
					"input":12,
					"interpolation":"LINEAR",
					"output":14
				},
				{
					"input":12,
					"interpolation":"LINEAR",
					"output":15
				}
			]
		}
	],
	"materials":[
		{
			"doubleSided":true,
			"extensions":{
				"KHR_materials_specular":{
					"specularColorFactor":[
						0,
						0,
						0
					]
				},
				"KHR_materials_ior":{
					"ior":1.4500000476837158
				}
			},
			"name":"soil",
			"pbrMetallicRoughness":{
				"baseColorFactor":[
					0.18446944653987885,
					0.05302741006016731,
					0.007473601493984461,
					1
				],
				"metallicFactor":0,
				"roughnessFactor":0.5
			}
		},
		{
			"doubleSided":true,
			"name":"stalk",
			"pbrMetallicRoughness":{
				"baseColorFactor":[
					0.022539179772138596,
					0.137583926320076,
					0.011214639991521835,
					1
				],
				"metallicFactor":0,
				"roughnessFactor":0.5
			}
		},
		{
			"doubleSided":true,
			"extensions":{
				"KHR_materials_specular":{
					"specularColorFactor":[
						1.4989929247371179,
						1.4989929247371179,
						1.4989929247371179
					]
				},
				"KHR_materials_ior":{
					"ior":1.4500000476837158
				}
			},
			"name":"corncob",
			"pbrMetallicRoughness":{
				"baseColorFactor":[
					0.8549789190292358,
					0.5795806050300598,
					0.07751891016960144,
					1
				],
				"metallicFactor":0,
				"roughnessFactor":0.5
			}
		}
	],
	"meshes":[
		{
			"name":"Cube",
			"primitives":[
				{
					"attributes":{
						"POSITION":0,
						"TEXCOORD_0":1,
						"NORMAL":2
					},
					"indices":3,
					"material":0
				}
			]
		},
		{
			"name":"cornstalkMesh",
			"primitives":[
				{
					"attributes":{
						"POSITION":4,
						"TEXCOORD_0":5,
						"NORMAL":6
					},
					"indices":7,
					"material":1
				},
				{
					"attributes":{
						"POSITION":8,
						"TEXCOORD_0":9,
						"NORMAL":10
					},
					"indices":11,
					"material":2
				}
			]
		}
	],
	"accessors":[
		{
			"bufferView":0,
			"componentType":5126,
			"count":24,
			"max":[
				1,
				1,
				1
			],
			"min":[
				-1,
				-1,
				-1
			],
			"type":"VEC3"
		},
		{
			"bufferView":1,
			"componentType":5126,
			"count":24,
			"type":"VEC2"
		},
		{
			"bufferView":2,
			"componentType":5126,
			"count":24,
			"type":"VEC3"
		},
		{
			"bufferView":3,
			"componentType":5123,
			"count":36,
			"type":"SCALAR"
		},
		{
			"bufferView":4,
			"componentType":5126,
			"count":608,
			"max":[
				0.4687584936618805,
				3.008436441421509,
				0.4741625487804413
			],
			"min":[
				-0.4539029598236084,
				0.008125542663037777,
				-0.33306819200515747
			],
			"type":"VEC3"
		},
		{
			"bufferView":5,
			"componentType":5126,
			"count":608,
			"type":"VEC2"
		},
		{
			"bufferView":6,
			"componentType":5126,
			"count":608,
			"type":"VEC3"
		},
		{
			"bufferView":7,
			"componentType":5123,
			"count":3012,
			"type":"SCALAR"
		},
		{
			"bufferView":8,
			"componentType":5126,
			"count":8444,
			"max":[
				0.13699334859848022,
				2.787306308746338,
				0.004633128643035889
			],
			"min":[
				-0.15770214796066284,
				1.5588512420654297,
				-0.1552642583847046
			],
			"type":"VEC3"
		},
		{
			"bufferView":9,
			"componentType":5126,
			"count":8444,
			"type":"VEC2"
		},
		{
			"bufferView":10,
			"componentType":5126,
			"count":8444,
			"type":"VEC3"
		},
		{
			"bufferView":11,
			"componentType":5123,
			"count":50640,
			"type":"SCALAR"
		},
		{
			"bufferView":12,
			"componentType":5126,
			"count":2,
			"max":[
				0.08333333333333333
			],
			"min":[
				0.041666666666666664
			],
			"type":"SCALAR"
		},
		{
			"bufferView":13,
			"componentType":5126,
			"count":2,
			"type":"VEC3"
		},
		{
			"bufferView":14,
			"componentType":5126,
			"count":2,
			"type":"VEC4"
		},
		{
			"bufferView":15,
			"componentType":5126,
			"count":2,
			"type":"VEC3"
		}
	],
	"bufferViews":[
		{
			"buffer":0,
			"byteLength":288,
			"byteOffset":0,
			"target":34962
		},
		{
			"buffer":0,
			"byteLength":192,
			"byteOffset":288,
			"target":34962
		},
		{
			"buffer":0,
			"byteLength":288,
			"byteOffset":480,
			"target":34962
		},
		{
			"buffer":0,
			"byteLength":72,
			"byteOffset":768,
			"target":34963
		},
		{
			"buffer":0,
			"byteLength":7296,
			"byteOffset":840,
			"target":34962
		},
		{
			"buffer":0,
			"byteLength":4864,
			"byteOffset":8136,
			"target":34962
		},
		{
			"buffer":0,
			"byteLength":7296,
			"byteOffset":13000,
			"target":34962
		},
		{
			"buffer":0,
			"byteLength":6024,
			"byteOffset":20296,
			"target":34963
		},
		{
			"buffer":0,
			"byteLength":101328,
			"byteOffset":26320,
			"target":34962
		},
		{
			"buffer":0,
			"byteLength":67552,
			"byteOffset":127648,
			"target":34962
		},
		{
			"buffer":0,
			"byteLength":101328,
			"byteOffset":195200,
			"target":34962
		},
		{
			"buffer":0,
			"byteLength":101280,
			"byteOffset":296528,
			"target":34963
		},
		{
			"buffer":0,
			"byteLength":8,
			"byteOffset":397808
		},
		{
			"buffer":0,
			"byteLength":24,
			"byteOffset":397816
		},
		{
			"buffer":0,
			"byteLength":32,
			"byteOffset":397840
		},
		{
			"buffer":0,
			"byteLength":24,
			"byteOffset":397872
		}
	],
	"buffers":[
		{
			"byteLength":397896,
			"uri":"data:application/octet-stream;base64,"
		}
	]
}
