{
	"asset":{
		"copyright":"Monstrous Software",
		"generator":"Khronos glTF Blender I/O v3.5.30",
		"version":"2.0"
	},
	"extensionsUsed":[
		"KHR_materials_specular",
		"KHR_materials_ior"
	],
	"scene":0,
	"scenes":[
		{
			"name":"Scene",
			"nodes":[
				0,
				1,
				2
			]
		}
	],
	"nodes":[
		{
			"mesh":0,
			"name":"reeds"
		},
		{
			"mesh":1,
			"name":"groundplane",
			"scale":[
				20,
				1,
				20
			],
			"translation":[
				0,
				-1,
				0
			]
		},
		{
			"mesh":2,
			"name":"cornstalk",
			"rotation":[
				0,
				-0.8276183009147644,
				0,
				0.5612913370132446
			],
			"translation":[
				0,
				0.9245599508285522,
				0
			]
		}
	],
	"animations":[
		{
			"channels":[
				{
					"sampler":0,
					"target":{
						"node":0,
						"path":"translation"
					}
				},
				{
					"sampler":1,
					"target":{
						"node":0,
						"path":"rotation"
					}
				},
				{
					"sampler":2,
					"target":{
						"node":0,
						"path":"scale"
					}
				}
			],
			"name":"reeds",
			"samplers":[
				{
					"input":16,
					"interpolation":"LINEAR",
					"output":17
				},
				{
					"input":16,
					"interpolation":"LINEAR",
					"output":18
				},
				{
					"input":16,
					"interpolation":"LINEAR",
					"output":19
				}
			]
		},
		{
			"channels":[
				{
					"sampler":0,
					"target":{
						"node":1,
						"path":"translation"
					}
				},
				{
					"sampler":1,
					"target":{
						"node":1,
						"path":"rotation"
					}
				},
				{
					"sampler":2,
					"target":{
						"node":1,
						"path":"scale"
					}
				}
			],
			"name":"groundplane",
			"samplers":[
				{
					"input":16,
					"interpolation":"LINEAR",
					"output":20
				},
				{
					"input":16,
					"interpolation":"LINEAR",
					"output":21
				},
				{
					"input":16,
					"interpolation":"LINEAR",
					"output":22
				}
			]
		}
	],
	"materials":[
		{
			"doubleSided":true,
			"extensions":{
				"KHR_materials_specular":{
					"specularColorFactor":[
						0,
						0,
						0
					]
				},
				"KHR_materials_ior":{
					"ior":1.4500000476837158
				}
			},
			"name":"palette",
			"pbrMetallicRoughness":{
				"baseColorTexture":{
					"index":0
				},
				"metallicFactor":0,
				"roughnessFactor":0
			}
		},
		{
			"doubleSided":true,
			"extensions":{
				"KHR_materials_specular":{
					"specularColorFactor":[
						0,
						0,
						0
					]
				},
				"KHR_materials_ior":{
					"ior":1.4500000476837158
				}
			},
			"name":"soil",
			"pbrMetallicRoughness":{
				"baseColorFactor":[
					0.18446944653987885,
					0.05302741006016731,
					0.007473601493984461,
					1
				],
				"metallicFactor":0,
				"roughnessFactor":0.5
			}
		},
		{
			"doubleSided":true,
			"name":"stalk",
			"pbrMetallicRoughness":{
				"baseColorFactor":[
					0.022539179772138596,
					0.137583926320076,
					0.011214639991521835,
					1
				],
				"metallicFactor":0,
				"roughnessFactor":0.5
			}
		},
		{
			"doubleSided":true,
			"extensions":{
				"KHR_materials_specular":{
					"specularColorFactor":[
						1.4989929247371179,
						1.4989929247371179,
						1.4989929247371179
					]
				},
				"KHR_materials_ior":{
					"ior":1.4500000476837158
				}
			},
			"name":"corncob",
			"pbrMetallicRoughness":{
				"baseColorFactor":[
					0.8549789190292358,
					0.5795806050300598,
					0.07751891016960144,
					1
				],
				"metallicFactor":0,
				"roughnessFactor":0.5
			}
		}
	],
	"meshes":[
		{
			"name":"reedMesh",
			"primitives":[
				{
					"attributes":{
						"POSITION":0,
						"TEXCOORD_0":1,
						"NORMAL":2
					},
					"indices":3,
					"material":0
				}
			]
		},
		{
			"name":"Cube",
			"primitives":[
				{
					"attributes":{
						"POSITION":4,
						"TEXCOORD_0":5,
						"NORMAL":6
					},
					"indices":7,
					"material":1
				}
			]
		},
		{
			"name":"cornstalkMesh.003",
			"primitives":[
				{
					"attributes":{
						"POSITION":8,
						"TEXCOORD_0":9,
						"NORMAL":10
					},
					"indices":11,
					"material":2
				},
				{
					"attributes":{
						"POSITION":12,
						"TEXCOORD_0":13,
						"NORMAL":14
					},
					"indices":15,
					"material":3
				}
			]
		}
	],
	"textures":[
		{
			"sampler":0,
			"source":0
		}
	],
	"images":[
		{
			"mimeType":"image/png",
			"name":"palette",
			"uri":"palette.png"
		}
	],
	"accessors":[
		{
			"bufferView":0,
			"componentType":5126,
			"count":1140,
			"max":[
				0.9652817845344543,
				1.6679761409759521,
				0.2162766456604004
			],
			"min":[
				-0.5675457715988159,
				-0.014799535274505615,
				-0.5187764763832092
			],
			"type":"VEC3"
		},
		{
			"bufferView":1,
			"componentType":5126,
			"count":1140,
			"type":"VEC2"
		},
		{
			"bufferView":2,
			"componentType":5126,
			"count":1140,
			"type":"VEC3"
		},
		{
			"bufferView":3,
			"componentType":5123,
			"count":1752,
			"type":"SCALAR"
		},
		{
			"bufferView":4,
			"componentType":5126,
			"count":24,
			"max":[
				1,
				1,
				1
			],
			"min":[
				-1,
				-1,
				-1
			],
			"type":"VEC3"
		},
		{
			"bufferView":5,
			"componentType":5126,
			"count":24,
			"type":"VEC2"
		},
		{
			"bufferView":6,
			"componentType":5126,
			"count":24,
			"type":"VEC3"
		},
		{
			"bufferView":7,
			"componentType":5123,
			"count":36,
			"type":"SCALAR"
		},
		{
			"bufferView":8,
			"componentType":5126,
			"count":273,
			"max":[
				0.4420807659626007,
				2.083876609802246,
				0.5190955996513367
			],
			"min":[
				-0.42932945489883423,
				-0.9164341688156128,
				-0.4459751844406128
			],
			"type":"VEC3"
		},
		{
			"bufferView":9,
			"componentType":5126,
			"count":273,
			"type":"VEC2"
		},
		{
			"bufferView":10,
			"componentType":5126,
			"count":273,
			"type":"VEC3"
		},
		{
			"bufferView":11,
			"componentType":5123,
			"count":1380,
			"type":"SCALAR"
		},
		{
			"bufferView":12,
			"componentType":5126,
			"count":3884,
			"max":[
				0.03661616891622543,
				1.8785935640335083,
				0.1799561232328415
			],
			"min":[
				-0.15770214796066284,
				0.6342912912368774,
				-0.12392127513885498
			],
			"type":"VEC3"
		},
		{
			"bufferView":13,
			"componentType":5126,
			"count":3884,
			"type":"VEC2"
		},
		{
			"bufferView":14,
			"componentType":5126,
			"count":3884,
			"type":"VEC3"
		},
		{
			"bufferView":15,
			"componentType":5123,
			"count":23280,
			"type":"SCALAR"
		},
		{
			"bufferView":16,
			"componentType":5126,
			"count":2,
			"max":[
				0.08333333333333333
			],
			"min":[
				0.041666666666666664
			],
			"type":"SCALAR"
		},
		{
			"bufferView":17,
			"componentType":5126,
			"count":2,
			"type":"VEC3"
		},
		{
			"bufferView":18,
			"componentType":5126,
			"count":2,
			"type":"VEC4"
		},
		{
			"bufferView":19,
			"componentType":5126,
			"count":2,
			"type":"VEC3"
		},
		{
			"bufferView":20,
			"componentType":5126,
			"count":2,
			"type":"VEC3"
		},
		{
			"bufferView":21,
			"componentType":5126,
			"count":2,
			"type":"VEC4"
		},
		{
			"bufferView":22,
			"componentType":5126,
			"count":2,
			"type":"VEC3"
		}
	],
	"bufferViews":[
		{
			"buffer":0,
			"byteLength":13680,
			"byteOffset":0,
			"target":34962
		},
		{
			"buffer":0,
			"byteLength":9120,
			"byteOffset":13680,
			"target":34962
		},
		{
			"buffer":0,
			"byteLength":13680,
			"byteOffset":22800,
			"target":34962
		},
		{
			"buffer":0,
			"byteLength":3504,
			"byteOffset":36480,
			"target":34963
		},
		{
			"buffer":0,
			"byteLength":288,
			"byteOffset":39984,
			"target":34962
		},
		{
			"buffer":0,
			"byteLength":192,
			"byteOffset":40272,
			"target":34962
		},
		{
			"buffer":0,
			"byteLength":288,
			"byteOffset":40464,
			"target":34962
		},
		{
			"buffer":0,
			"byteLength":72,
			"byteOffset":40752,
			"target":34963
		},
		{
			"buffer":0,
			"byteLength":3276,
			"byteOffset":40824,
			"target":34962
		},
		{
			"buffer":0,
			"byteLength":2184,
			"byteOffset":44100,
			"target":34962
		},
		{
			"buffer":0,
			"byteLength":3276,
			"byteOffset":46284,
			"target":34962
		},
		{
			"buffer":0,
			"byteLength":2760,
			"byteOffset":49560,
			"target":34963
		},
		{
			"buffer":0,
			"byteLength":46608,
			"byteOffset":52320,
			"target":34962
		},
		{
			"buffer":0,
			"byteLength":31072,
			"byteOffset":98928,
			"target":34962
		},
		{
			"buffer":0,
			"byteLength":46608,
			"byteOffset":130000,
			"target":34962
		},
		{
			"buffer":0,
			"byteLength":46560,
			"byteOffset":176608,
			"target":34963
		},
		{
			"buffer":0,
			"byteLength":8,
			"byteOffset":223168
		},
		{
			"buffer":0,
			"byteLength":24,
			"byteOffset":223176
		},
		{
			"buffer":0,
			"byteLength":32,
			"byteOffset":223200
		},
		{
			"buffer":0,
			"byteLength":24,
			"byteOffset":223232
		},
		{
			"buffer":0,
			"byteLength":24,
			"byteOffset":223256
		},
		{
			"buffer":0,
			"byteLength":32,
			"byteOffset":223280
		},
		{
			"buffer":0,
			"byteLength":24,
			"byteOffset":223312
		}
	],
	"samplers":[
		{
			"magFilter":9729,
			"minFilter":9987
		}
	],
	"buffers":[
		{
			"byteLength":223336,
			"uri":"corn.bin"
		}
	]
}
