{
	"asset":{
		"copyright":"Monstrous Software",
		"generator":"Khronos glTF Blender I/O v3.5.30",
		"version":"2.0"
	},
	"extensionsUsed":[
		"KHR_materials_specular",
		"KHR_materials_ior"
	],
	"scene":0,
	"scenes":[
		{
			"name":"Scene",
			"nodes":[
				0,
				1,
				2
			]
		}
	],
	"nodes":[
		{
			"mesh":0,
			"name":"reeds"
		},
		{
			"mesh":1,
			"name":"groundplane",
			"scale":[
				20,
				1,
				20
			],
			"translation":[
				0,
				-1,
				0
			]
		},
		{
			"mesh":2,
			"name":"cornstalk",
			"rotation":[
				-0.18523387610912323,
				-0.7958952784538269,
				0.029125647619366646,
				0.5756655931472778
			],
			"scale":[
				0.060721129179000854,
				0.06072112172842026,
				0.06072112172842026
			],
			"translation":[
				0.025153830647468567,
				2.493030071258545,
				-0.028917748481035233
			]
		}
	],
	"materials":[
		{
			"doubleSided":true,
			"extensions":{
				"KHR_materials_specular":{
					"specularColorFactor":[
						0,
						0,
						0
					]
				},
				"KHR_materials_ior":{
					"ior":1.4500000476837158
				}
			},
			"name":"palette",
			"pbrMetallicRoughness":{
				"baseColorTexture":{
					"index":0
				},
				"metallicFactor":0.06735754013061523,
				"roughnessFactor":0.30051812529563904
			}
		},
		{
			"doubleSided":true,
			"extensions":{
				"KHR_materials_specular":{
					"specularColorFactor":[
						0,
						0,
						0
					]
				},
				"KHR_materials_ior":{
					"ior":1.4500000476837158
				}
			},
			"name":"soil",
			"pbrMetallicRoughness":{
				"baseColorFactor":[
					0.18446944653987885,
					0.05302741006016731,
					0.007473601493984461,
					1
				],
				"metallicFactor":0,
				"roughnessFactor":0.5
			}
		}
	],
	"meshes":[
		{
			"name":"reedMesh",
			"primitives":[
				{
					"attributes":{
						"POSITION":0,
						"TEXCOORD_0":1,
						"NORMAL":2
					},
					"indices":3,
					"material":0
				}
			]
		},
		{
			"name":"Cube",
			"primitives":[
				{
					"attributes":{
						"POSITION":4,
						"TEXCOORD_0":5,
						"NORMAL":6
					},
					"indices":7,
					"material":1
				}
			]
		},
		{
			"name":"Sphere",
			"primitives":[
				{
					"attributes":{
						"POSITION":8,
						"TEXCOORD_0":9,
						"NORMAL":10
					},
					"indices":11,
					"material":0
				}
			]
		}
	],
	"textures":[
		{
			"sampler":0,
			"source":0
		}
	],
	"images":[
		{
			"mimeType":"image/png",
			"name":"palette",
			"uri":"palette.png"
		}
	],
	"accessors":[
		{
			"bufferView":0,
			"componentType":5126,
			"count":1140,
			"max":[
				0.9652817845344543,
				1.6679761409759521,
				0.2162766456604004
			],
			"min":[
				-0.5675457715988159,
				-0.014799535274505615,
				-0.5187764763832092
			],
			"type":"VEC3"
		},
		{
			"bufferView":1,
			"componentType":5126,
			"count":1140,
			"type":"VEC2"
		},
		{
			"bufferView":2,
			"componentType":5126,
			"count":1140,
			"type":"VEC3"
		},
		{
			"bufferView":3,
			"componentType":5123,
			"count":1752,
			"type":"SCALAR"
		},
		{
			"bufferView":4,
			"componentType":5126,
			"count":24,
			"max":[
				1,
				1,
				1
			],
			"min":[
				-1,
				-1,
				-1
			],
			"type":"VEC3"
		},
		{
			"bufferView":5,
			"componentType":5126,
			"count":24,
			"type":"VEC2"
		},
		{
			"bufferView":6,
			"componentType":5126,
			"count":24,
			"type":"VEC3"
		},
		{
			"bufferView":7,
			"componentType":5123,
			"count":36,
			"type":"SCALAR"
		},
		{
			"bufferView":8,
			"componentType":5126,
			"count":890,
			"max":[
				5.812478065490723,
				8.015279769897461,
				7.187520980834961
			],
			"min":[
				-13.42171573638916,
				-38.50127410888672,
				-10.910640716552734
			],
			"type":"VEC3"
		},
		{
			"bufferView":9,
			"componentType":5126,
			"count":890,
			"type":"VEC2"
		},
		{
			"bufferView":10,
			"componentType":5126,
			"count":890,
			"type":"VEC3"
		},
		{
			"bufferView":11,
			"componentType":5123,
			"count":2532,
			"type":"SCALAR"
		}
	],
	"bufferViews":[
		{
			"buffer":0,
			"byteLength":13680,
			"byteOffset":0,
			"target":34962
		},
		{
			"buffer":0,
			"byteLength":9120,
			"byteOffset":13680,
			"target":34962
		},
		{
			"buffer":0,
			"byteLength":13680,
			"byteOffset":22800,
			"target":34962
		},
		{
			"buffer":0,
			"byteLength":3504,
			"byteOffset":36480,
			"target":34963
		},
		{
			"buffer":0,
			"byteLength":288,
			"byteOffset":39984,
			"target":34962
		},
		{
			"buffer":0,
			"byteLength":192,
			"byteOffset":40272,
			"target":34962
		},
		{
			"buffer":0,
			"byteLength":288,
			"byteOffset":40464,
			"target":34962
		},
		{
			"buffer":0,
			"byteLength":72,
			"byteOffset":40752,
			"target":34963
		},
		{
			"buffer":0,
			"byteLength":10680,
			"byteOffset":40824,
			"target":34962
		},
		{
			"buffer":0,
			"byteLength":7120,
			"byteOffset":51504,
			"target":34962
		},
		{
			"buffer":0,
			"byteLength":10680,
			"byteOffset":58624,
			"target":34962
		},
		{
			"buffer":0,
			"byteLength":5064,
			"byteOffset":69304,
			"target":34963
		}
	],
	"samplers":[
		{
			"magFilter":9729,
			"minFilter":9987
		}
	],
	"buffers":[
		{
			"byteLength":74368,
			"uri":"corn.bin"
		}
	]
}
