{
	"asset":{
		"copyright":"Monstrous Software",
		"generator":"Khronos glTF Blender I/O v3.5.30",
		"version":"2.0"
	},
	"extensionsUsed":[
		"KHR_materials_specular",
		"KHR_materials_ior"
	],
	"scene":0,
	"scenes":[
		{
			"name":"Scene",
			"nodes":[
				0
			]
		}
	],
	"nodes":[
		{
			"mesh":0,
			"name":"cornstalk"
		}
	],
	"materials":[
		{
			"doubleSided":true,
			"extensions":{
				"KHR_materials_specular":{
					"specularColorFactor":[
						0,
						0,
						0
					]
				},
				"KHR_materials_ior":{
					"ior":1.4500000476837158
				}
			},
			"name":"palette",
			"pbrMetallicRoughness":{
				"baseColorTexture":{
					"index":0
				},
				"metallicFactor":0,
				"roughnessFactor":0
			}
		}
	],
	"meshes":[
		{
			"name":"cornstalkMesh",
			"primitives":[
				{
					"attributes":{
						"POSITION":0,
						"TEXCOORD_0":1,
						"NORMAL":2
					},
					"indices":3,
					"material":0
				}
			]
		}
	],
	"textures":[
		{
			"sampler":0,
			"source":0
		}
	],
	"images":[
		{
			"bufferView":4,
			"mimeType":"image/png",
			"name":"bigpalette"
		}
	],
	"accessors":[
		{
			"bufferView":0,
			"componentType":5126,
			"count":9052,
			"max":[
				0.46875861287117004,
				3.008436441421509,
				0.4741625487804413
			],
			"min":[
				-0.4539027810096741,
				0.008125543594360352,
				-0.33306819200515747
			],
			"type":"VEC3"
		},
		{
			"bufferView":1,
			"componentType":5126,
			"count":9052,
			"type":"VEC2"
		},
		{
			"bufferView":2,
			"componentType":5126,
			"count":9052,
			"type":"VEC3"
		},
		{
			"bufferView":3,
			"componentType":5123,
			"count":53652,
			"type":"SCALAR"
		}
	],
	"bufferViews":[
		{
			"buffer":0,
			"byteLength":108624,
			"byteOffset":0,
			"target":34962
		},
		{
			"buffer":0,
			"byteLength":72416,
			"byteOffset":108624,
			"target":34962
		},
		{
			"buffer":0,
			"byteLength":108624,
			"byteOffset":181040,
			"target":34962
		},
		{
			"buffer":0,
			"byteLength":107304,
			"byteOffset":289664,
			"target":34963
		},
		{
			"buffer":0,
			"byteLength":599,
			"byteOffset":396968
		}
	],
	"samplers":[
		{
			"magFilter":9729,
			"minFilter":9987
		}
	],
	"buffers":[
		{
			"byteLength":397568,
			"uri":"data:application/octet-stream;base64,"
		}
	]
}
