{
	"asset":{
		"copyright":"Monstrous Software",
		"generator":"Khronos glTF Blender I/O v3.5.30",
		"version":"2.0"
	},
	"extensionsUsed":[
		"KHR_materials_specular",
		"KHR_materials_ior"
	],
	"scene":0,
	"scenes":[
		{
			"name":"Scene",
			"nodes":[
				0,
				1,
				2,
				3
			]
		}
	],
	"nodes":[
		{
			"mesh":0,
			"name":"reeds"
		},
		{
			"mesh":1,
			"name":"groundplane",
			"scale":[
				20,
				1,
				20
			],
			"translation":[
				0,
				-1,
				0
			]
		},
		{
			"mesh":2,
			"name":"cornstalk"
		},
		{
			"mesh":3,
			"name":"Cube"
		}
	],
	"animations":[
		{
			"channels":[
				{
					"sampler":0,
					"target":{
						"node":0,
						"path":"translation"
					}
				},
				{
					"sampler":1,
					"target":{
						"node":0,
						"path":"rotation"
					}
				},
				{
					"sampler":2,
					"target":{
						"node":0,
						"path":"scale"
					}
				}
			],
			"name":"reeds",
			"samplers":[
				{
					"input":16,
					"interpolation":"LINEAR",
					"output":17
				},
				{
					"input":16,
					"interpolation":"LINEAR",
					"output":18
				},
				{
					"input":16,
					"interpolation":"LINEAR",
					"output":19
				}
			]
		},
		{
			"channels":[
				{
					"sampler":0,
					"target":{
						"node":1,
						"path":"translation"
					}
				},
				{
					"sampler":1,
					"target":{
						"node":1,
						"path":"rotation"
					}
				},
				{
					"sampler":2,
					"target":{
						"node":1,
						"path":"scale"
					}
				}
			],
			"name":"groundplane",
			"samplers":[
				{
					"input":16,
					"interpolation":"LINEAR",
					"output":20
				},
				{
					"input":16,
					"interpolation":"LINEAR",
					"output":21
				},
				{
					"input":16,
					"interpolation":"LINEAR",
					"output":22
				}
			]
		},
		{
			"channels":[
				{
					"sampler":0,
					"target":{
						"node":3,
						"path":"translation"
					}
				},
				{
					"sampler":1,
					"target":{
						"node":3,
						"path":"rotation"
					}
				},
				{
					"sampler":2,
					"target":{
						"node":3,
						"path":"scale"
					}
				}
			],
			"name":"Cube",
			"samplers":[
				{
					"input":16,
					"interpolation":"LINEAR",
					"output":23
				},
				{
					"input":16,
					"interpolation":"LINEAR",
					"output":24
				},
				{
					"input":16,
					"interpolation":"LINEAR",
					"output":25
				}
			]
		}
	],
	"materials":[
		{
			"doubleSided":true,
			"extensions":{
				"KHR_materials_specular":{
					"specularColorFactor":[
						0,
						0,
						0
					]
				},
				"KHR_materials_ior":{
					"ior":1.4500000476837158
				}
			},
			"name":"palette",
			"pbrMetallicRoughness":{
				"baseColorTexture":{
					"index":0
				},
				"metallicFactor":0,
				"roughnessFactor":0
			}
		}
	],
	"meshes":[
		{
			"name":"reedMesh",
			"primitives":[
				{
					"attributes":{
						"POSITION":0,
						"TEXCOORD_0":1,
						"NORMAL":2
					},
					"indices":3,
					"material":0
				}
			]
		},
		{
			"name":"Cube",
			"primitives":[
				{
					"attributes":{
						"POSITION":4,
						"TEXCOORD_0":5,
						"NORMAL":6
					},
					"indices":7,
					"material":0
				}
			]
		},
		{
			"name":"cornstalkMesh",
			"primitives":[
				{
					"attributes":{
						"POSITION":8,
						"TEXCOORD_0":9,
						"NORMAL":10
					},
					"indices":11,
					"material":0
				}
			]
		},
		{
			"name":"Cube.001",
			"primitives":[
				{
					"attributes":{
						"POSITION":12,
						"TEXCOORD_0":13,
						"NORMAL":14
					},
					"indices":15,
					"material":0
				}
			]
		}
	],
	"textures":[
		{
			"sampler":0,
			"source":0
		}
	],
	"images":[
		{
			"bufferView":4,
			"mimeType":"image/png",
			"name":"bigpalette"
		}
	],
	"accessors":[
		{
			"bufferView":0,
			"componentType":5126,
			"count":1140,
			"max":[
				0.9652817845344543,
				1.6679761409759521,
				0.2162766456604004
			],
			"min":[
				-0.5675457715988159,
				-0.014799535274505615,
				-0.5187764763832092
			],
			"type":"VEC3"
		},
		{
			"bufferView":1,
			"componentType":5126,
			"count":1140,
			"type":"VEC2"
		},
		{
			"bufferView":2,
			"componentType":5126,
			"count":1140,
			"type":"VEC3"
		},
		{
			"bufferView":3,
			"componentType":5123,
			"count":1752,
			"type":"SCALAR"
		},
		{
			"bufferView":5,
			"componentType":5126,
			"count":24,
			"max":[
				1,
				1,
				1
			],
			"min":[
				-1,
				-1,
				-1
			],
			"type":"VEC3"
		},
		{
			"bufferView":6,
			"componentType":5126,
			"count":24,
			"type":"VEC2"
		},
		{
			"bufferView":7,
			"componentType":5126,
			"count":24,
			"type":"VEC3"
		},
		{
			"bufferView":8,
			"componentType":5123,
			"count":36,
			"type":"SCALAR"
		},
		{
			"bufferView":9,
			"componentType":5126,
			"count":9052,
			"max":[
				0.4687584936618805,
				3.008436441421509,
				0.4741625487804413
			],
			"min":[
				-0.4539029598236084,
				0.008125542663037777,
				-0.33306819200515747
			],
			"type":"VEC3"
		},
		{
			"bufferView":10,
			"componentType":5126,
			"count":9052,
			"type":"VEC2"
		},
		{
			"bufferView":11,
			"componentType":5126,
			"count":9052,
			"type":"VEC3"
		},
		{
			"bufferView":12,
			"componentType":5123,
			"count":53652,
			"type":"SCALAR"
		},
		{
			"bufferView":13,
			"componentType":5126,
			"count":24,
			"max":[
				0.5,
				0.5,
				0.5
			],
			"min":[
				-0.5,
				-0.5,
				-0.5
			],
			"type":"VEC3"
		},
		{
			"bufferView":14,
			"componentType":5126,
			"count":24,
			"type":"VEC2"
		},
		{
			"bufferView":15,
			"componentType":5126,
			"count":24,
			"type":"VEC3"
		},
		{
			"bufferView":16,
			"componentType":5123,
			"count":36,
			"type":"SCALAR"
		},
		{
			"bufferView":17,
			"componentType":5126,
			"count":2,
			"max":[
				0.08333333333333333
			],
			"min":[
				0.041666666666666664
			],
			"type":"SCALAR"
		},
		{
			"bufferView":18,
			"componentType":5126,
			"count":2,
			"type":"VEC3"
		},
		{
			"bufferView":19,
			"componentType":5126,
			"count":2,
			"type":"VEC4"
		},
		{
			"bufferView":20,
			"componentType":5126,
			"count":2,
			"type":"VEC3"
		},
		{
			"bufferView":21,
			"componentType":5126,
			"count":2,
			"type":"VEC3"
		},
		{
			"bufferView":22,
			"componentType":5126,
			"count":2,
			"type":"VEC4"
		},
		{
			"bufferView":23,
			"componentType":5126,
			"count":2,
			"type":"VEC3"
		},
		{
			"bufferView":24,
			"componentType":5126,
			"count":2,
			"type":"VEC3"
		},
		{
			"bufferView":25,
			"componentType":5126,
			"count":2,
			"type":"VEC4"
		},
		{
			"bufferView":26,
			"componentType":5126,
			"count":2,
			"type":"VEC3"
		}
	],
	"bufferViews":[
		{
			"buffer":0,
			"byteLength":13680,
			"byteOffset":0,
			"target":34962
		},
		{
			"buffer":0,
			"byteLength":9120,
			"byteOffset":13680,
			"target":34962
		},
		{
			"buffer":0,
			"byteLength":13680,
			"byteOffset":22800,
			"target":34962
		},
		{
			"buffer":0,
			"byteLength":3504,
			"byteOffset":36480,
			"target":34963
		},
		{
			"buffer":0,
			"byteLength":599,
			"byteOffset":39984
		},
		{
			"buffer":0,
			"byteLength":288,
			"byteOffset":40584,
			"target":34962
		},
		{
			"buffer":0,
			"byteLength":192,
			"byteOffset":40872,
			"target":34962
		},
		{
			"buffer":0,
			"byteLength":288,
			"byteOffset":41064,
			"target":34962
		},
		{
			"buffer":0,
			"byteLength":72,
			"byteOffset":41352,
			"target":34963
		},
		{
			"buffer":0,
			"byteLength":108624,
			"byteOffset":41424,
			"target":34962
		},
		{
			"buffer":0,
			"byteLength":72416,
			"byteOffset":150048,
			"target":34962
		},
		{
			"buffer":0,
			"byteLength":108624,
			"byteOffset":222464,
			"target":34962
		},
		{
			"buffer":0,
			"byteLength":107304,
			"byteOffset":331088,
			"target":34963
		},
		{
			"buffer":0,
			"byteLength":288,
			"byteOffset":438392,
			"target":34962
		},
		{
			"buffer":0,
			"byteLength":192,
			"byteOffset":438680,
			"target":34962
		},
		{
			"buffer":0,
			"byteLength":288,
			"byteOffset":438872,
			"target":34962
		},
		{
			"buffer":0,
			"byteLength":72,
			"byteOffset":439160,
			"target":34963
		},
		{
			"buffer":0,
			"byteLength":8,
			"byteOffset":439232
		},
		{
			"buffer":0,
			"byteLength":24,
			"byteOffset":439240
		},
		{
			"buffer":0,
			"byteLength":32,
			"byteOffset":439264
		},
		{
			"buffer":0,
			"byteLength":24,
			"byteOffset":439296
		},
		{
			"buffer":0,
			"byteLength":24,
			"byteOffset":439320
		},
		{
			"buffer":0,
			"byteLength":32,
			"byteOffset":439344
		},
		{
			"buffer":0,
			"byteLength":24,
			"byteOffset":439376
		},
		{
			"buffer":0,
			"byteLength":24,
			"byteOffset":439400
		},
		{
			"buffer":0,
			"byteLength":32,
			"byteOffset":439424
		},
		{
			"buffer":0,
			"byteLength":24,
			"byteOffset":439456
		}
	],
	"samplers":[
		{
			"magFilter":9729,
			"minFilter":9987
		}
	],
	"buffers":[
		{
			"byteLength":439480,
			"uri":"data:application/octet-stream;base64,"
		}
	]
}
