{
	"asset":{
		"copyright":"Monstrous Software",
		"generator":"Khronos glTF Blender I/O v3.5.30",
		"version":"2.0"
	},
	"extensionsUsed":[
		"KHR_materials_ior"
	],
	"scene":0,
	"scenes":[
		{
			"name":"Scene",
			"nodes":[
				0
			]
		}
	],
	"nodes":[
		{
			"mesh":0,
			"name":"ducky",
			"scale":[
				1,
				0.2627900540828705,
				1
			],
			"translation":[
				0,
				0.1511264145374298,
				0
			]
		}
	],
	"materials":[
		{
			"doubleSided":true,
			"extensions":{
				"KHR_materials_specular":{
					"specularColorFactor":[
						0,
						0,
						0
					]
				},
				"KHR_materials_ior":{
					"ior":1.4500000476837158
				}
			},
			"name":"matte",
			"pbrMetallicRoughness":{
				"baseColorTexture":{
					"index":0
				},
				"metallicFactor":0,
				"roughnessFactor":0.5
			}
		}
	],
	"meshes":[
		{
			"name":"Cube.003",
			"primitives":[
				{
					"attributes":{
						"POSITION":0,
						"TEXCOORD_0":1,
						"NORMAL":2
					},
					"indices":3,
					"material":0
				}
			]
		}
	],
	"textures":[
		{
			"sampler":0,
			"source":0
		}
	],
	"images":[
		{
			"mimeType":"image/png",
			"name":"palette",
			"uri":"palette.png"
		}
	],
	"accessors":[
		{
			"bufferView":0,
			"componentType":5126,
			"count":4411,
			"max":[
				0.6537764668464661,
				6.652236461639404,
				0.5318828225135803
			],
			"min":[
				-0.6537764668464661,
				-0.4705445170402527,
				-0.5208508968353271
			],
			"type":"VEC3"
		},
		{
			"bufferView":1,
			"componentType":5126,
			"count":4411,
			"type":"VEC2"
		},
		{
			"bufferView":2,
			"componentType":5126,
			"count":4411,
			"type":"VEC3"
		},
		{
			"bufferView":3,
			"componentType":5123,
			"count":21852,
			"type":"SCALAR"
		}
	],
	"bufferViews":[
		{
			"buffer":0,
			"byteLength":52932,
			"byteOffset":0,
			"target":34962
		},
		{
			"buffer":0,
			"byteLength":35288,
			"byteOffset":52932,
			"target":34962
		},
		{
			"buffer":0,
			"byteLength":52932,
			"byteOffset":88220,
			"target":34962
		},
		{
			"buffer":0,
			"byteLength":43704,
			"byteOffset":141152,
			"target":34963
		}
	],
	"samplers":[
		{
			"magFilter":9728,
			"minFilter":9984
		}
	],
	"buffers":[
		{
			"byteLength":184856,
			"uri":"ducky.bin"
		}
	]
}
